<svg xmlns="http://www.w3.org/2000/svg" viewBox="0 0 290.6 290.6">
  <defs/>
  <path d="M276.6 51.6h-89.1v-9.4a42.2 42.2 0 10-83.3 9.4H14.1A14 14 0 000 65.6v178.2a14 14 0 0014 14h89.1v23.5H70.3v9.3h150v-9.3h-32.8v-23.5h89a14 14 0 0014.1-14V65.6a14 14 0 00-14-14zM178 281.3h-65.6v-23.5h65.6v23.4zm103.2-37.6c0 2.6-2.2 4.7-4.7 4.7H14a4.7 4.7 0 01-4.7-4.7V225h271.8v18.8zm0-28H9.3v-150c0-2.7 2.2-4.8 4.8-4.8h93.5a42.2 42.2 0 0037.7 23.5h14V75h-14a32.9 32.9 0 1132.8-32.8v11.7a7 7 0 01-14 0V42.2a18.8 18.8 0 10-8.9 15.9 16.4 16.4 0 0030.6 2.8h90.8c2.6 0 4.7 2.1 4.7 4.7v150zM154.7 42.1a9.4 9.4 0 11-18.8 0 9.4 9.4 0 0118.8 0z"/>
  <path d="M70.3 196.9h150V93.7h-150V197zm15.4-9.4l46.1-50 13.4 8.6 13.9-8.3 45.8 49.7H85.7zm125.2-7.3l-43.6-47.3 43.6-26.2v73.5zm-12.2-77l-53.3 32-49.8-32h103.1zm-119 .8l44.1 28.4-44.1 47.8V104z"/>
</svg>